<svg xmlns="http://www.w3.org/2000/svg" width="1200" height="630" viewBox="0 0 1200 630">
  <defs>
    <linearGradient id="bg" x1="0" y1="0" x2="0" y2="1">
      <stop offset="0%" stop-color="#0a1628"/>
      <stop offset="100%" stop-color="#4a7ec8"/>
    </linearGradient>
    <linearGradient id="mount" x1="0" y1="0" x2="0" y2="1">
      <stop offset="0%" stop-color="#ffffff"/>
      <stop offset="100%" stop-color="#c5d5e8"/>
    </linearGradient>
  </defs>
  <rect width="1200" height="630" fill="url(#bg)"/>
  <path d="M0 470 L180 310 L260 340 L320 260 L380 345 L440 270 L520 340 L620 240 L700 330 L820 190 L960 380 L1200 250 L1200 630 L0 630Z" fill="#1f3d70" opacity="0.85"/>
  <path d="M220 420 L290 330 L340 360 L390 300 L440 340 L470 300 L520 340 L560 300 L610 340 L650 300 L700 340 L760 260 L820 330 L880 280 L940 340 L1000 290 L1060 340 L1120 300 L1200 380 L1200 630 L0 630Z" fill="url(#mount)"/>
  <circle cx="900" cy="160" r="98" fill="rgba(240,192,96,0.9)"/>
  <text x="84" y="166" font-family="Montserrat, sans-serif" font-size="78" font-weight="800" fill="#ffffff">Kabindra Shrestha</text>
  <text x="84" y="242" font-family="Montserrat, sans-serif" font-size="44" fill="#f4f4f4">Android Software Engineer</text>
  <text x="84" y="314" font-family="Montserrat, sans-serif" font-size="32" fill="#f0c060">LinkedIn-inspired work timeline</text>
  <rect x="84" y="360" width="460" height="4" fill="#f0c060" rx="2"/>
</svg>
