<svg xmlns="http://www.w3.org/2000/svg" width="1200" height="630" viewBox="0 0 1200 630">
  <defs>
    <linearGradient id="bg" x1="0" y1="0" x2="0" y2="1">
      <stop offset="0%" stop-color="#0a1628"/>
      <stop offset="100%" stop-color="#4a7ec8"/>
    </linearGradient>
    <linearGradient id="mount" x1="0" y1="0" x2="0" y2="1">
      <stop offset="0%" stop-color="#ffffff"/>
      <stop offset="100%" stop-color="#c5d5e8"/>
    </linearGradient>
  </defs>
  <rect width="1200" height="630" fill="url(#bg)"/>
  <path d="M0 430 L180 280 L260 310 L320 230 L380 300 L440 240 L520 320 L620 200 L700 300 L820 180 L960 350 L1200 240 L1200 630 L0 630Z" fill="#1d3d6d" opacity="0.88"/>
  <path d="M240 410 L300 340 L340 360 L390 310 L430 350 L470 310 L520 350 L560 310 L620 360 L680 290 L740 340 L820 240 L880 310 L940 280 L1000 340 L1060 290 L1120 340 L1200 430 L1200 630 L0 630Z" fill="url(#mount)"/>
  <circle cx="930" cy="150" r="90" fill="rgba(240,192,96,0.95)"/>
  <text x="84" y="170" font-family="Montserrat, sans-serif" font-size="72" font-weight="800" fill="#ffffff">Nepali New Year 2083</text>
  <text x="84" y="250" font-family="Montserrat, sans-serif" font-size="36" fill="#f0c060">A celebration of new beginnings and heritage</text>
  <rect x="84" y="280" width="520" height="4" fill="#f0c060" rx="2"/>
  <text x="84" y="410" font-family="Montserrat, sans-serif" font-size="28" fill="#ffffff">RSVP and share the joy of Nepali New Year.</text>
</svg>
